<svg width="137" height="61" viewBox="0 0 137 61" fill="none" xmlns="http://www.w3.org/2000/svg">
<g filter="url(#filter0_bdddddddd_3_5)">
<path d="M16.08 34.32C12.5333 34.32 9.69333 33.6533 7.56 32.32C5.42667 30.96 4.36 28.8933 4.36 26.12C4.36 24.6533 4.61333 23.5333 5.12 22.76C5.62667 21.9867 6.37333 21.6 7.36 21.6C8.08 21.6 8.66667 21.7867 9.12 22.16C9.57333 22.5333 9.8 23.0133 9.8 23.6C9.8 24.1333 9.76 24.6 9.68 25C9.68 25.1067 9.65333 25.2933 9.6 25.56C9.57333 25.8267 9.56 26.1067 9.56 26.4C9.56 27.6 10.16 28.4933 11.36 29.08C12.5867 29.6667 14.2933 29.96 16.48 29.96C18.7467 29.96 20.52 29.56 21.8 28.76C23.08 27.9333 23.72 26.7867 23.72 25.32C23.72 24.4133 23.4267 23.64 22.84 23C22.2533 22.3333 21.52 21.7867 20.64 21.36C19.76 20.9067 18.52 20.36 16.92 19.72C14.8667 18.92 13.1867 18.16 11.88 17.44C10.6 16.72 9.49333 15.7467 8.56 14.52C7.65333 13.2667 7.2 11.72 7.2 9.88C7.2 7.96 7.70667 6.25333 8.72 4.76C9.76 3.26666 11.24 2.10666 13.16 1.28C15.1067 0.453332 17.3867 0.0399985 20 0.0399985C21.9467 0.0399985 23.7333 0.333332 25.36 0.919999C26.9867 1.48 28.28 2.34666 29.24 3.52C30.2267 4.69333 30.72 6.13333 30.72 7.84C30.72 9.52 30.4667 10.7867 29.96 11.64C29.4533 12.4933 28.7067 12.92 27.72 12.92C27.0267 12.92 26.44 12.7067 25.96 12.28C25.5067 11.8533 25.28 11.3467 25.28 10.76C25.28 10.2533 25.32 9.78667 25.4 9.36C25.48 8.56 25.52 8.05333 25.52 7.84C25.52 6.72 24.9733 5.86666 23.88 5.28C22.7867 4.69333 21.4267 4.4 19.8 4.4C17.5067 4.4 15.7467 4.82667 14.52 5.68C13.32 6.50667 12.72 7.68 12.72 9.2C12.72 10.2133 13.0267 11.08 13.64 11.8C14.28 12.52 15.0667 13.12 16 13.6C16.9333 14.08 18.24 14.6533 19.92 15.32C21.9467 16.1467 23.5733 16.8933 24.8 17.56C26.0267 18.2267 27.0667 19.1333 27.92 20.28C28.8 21.4267 29.24 22.84 29.24 24.52C29.24 27.6667 28.04 30.0933 25.64 31.8C23.2667 33.48 20.08 34.32 16.08 34.32ZM52.9391 25.16C53.2857 25.16 53.5524 25.3333 53.7391 25.68C53.9524 26 54.0591 26.4133 54.0591 26.92C54.0591 27.5333 53.9657 28.0133 53.7791 28.36C53.5924 28.7067 53.2991 29.0133 52.8991 29.28L45.2191 34.44C44.2057 39.96 42.8724 44.2933 41.2191 47.44C39.5924 50.6133 37.5124 52.2 34.9791 52.2C33.6191 52.2 32.5124 51.7733 31.6591 50.92C30.8057 50.0933 30.3791 49 30.3791 47.64C30.3791 46.3867 30.6591 45.1067 31.2191 43.8C31.8057 42.4933 32.8724 40.9867 34.4191 39.28C35.9924 37.6 38.2057 35.6667 41.0591 33.48L41.1791 32.56C41.3657 31.5733 41.5791 30.16 41.8191 28.32C41.2857 30.24 40.5391 31.7067 39.5791 32.72C38.6191 33.7067 37.6057 34.2 36.5391 34.2C35.3391 34.2 34.3524 33.6533 33.5791 32.56C32.8324 31.44 32.4591 30.0533 32.4591 28.4C32.4591 26.4 32.5924 24.5733 32.8591 22.92C33.1257 21.24 33.5657 19.4667 34.1791 17.6C34.4457 16.8 34.8191 16.2267 35.2991 15.88C35.7791 15.5333 36.5391 15.36 37.5791 15.36C38.1657 15.36 38.5657 15.4533 38.7791 15.64C39.0191 15.8267 39.1391 16.1067 39.1391 16.48C39.1391 16.6933 38.9924 17.4133 38.6991 18.64C38.4324 19.6267 38.2191 20.52 38.0591 21.32C37.8457 22.4133 37.6591 23.4667 37.4991 24.48C37.3391 25.4667 37.2591 26.28 37.2591 26.92C37.2591 27.9333 37.5391 28.44 38.0991 28.44C38.4991 28.44 38.9924 28.04 39.5791 27.24C40.1924 26.44 40.8324 25.2267 41.4991 23.6C42.1924 21.9733 42.8591 19.9733 43.4991 17.6C43.7124 16.8 44.0324 16.2267 44.4591 15.88C44.9124 15.5333 45.5791 15.36 46.4591 15.36C47.0724 15.36 47.4991 15.44 47.7391 15.6C47.9791 15.76 48.0991 16.0267 48.0991 16.4C48.0991 17.0667 47.7524 19.36 47.0591 23.28L46.0191 29.72C48.0724 28.1733 50.0724 26.76 52.0191 25.48C52.3657 25.2667 52.6724 25.16 52.9391 25.16ZM35.4191 48.32C36.0857 48.32 36.8324 47.5467 37.6591 46C38.4857 44.4533 39.3124 41.88 40.1391 38.28C38.0857 40.0133 36.5924 41.5867 35.6591 43C34.7524 44.44 34.2991 45.6933 34.2991 46.76C34.2991 47.2133 34.3791 47.5867 34.5391 47.88C34.7257 48.1733 35.0191 48.32 35.4191 48.32ZM54.01 34.2C52.9967 34.2 52.2767 33.6667 51.85 32.6C51.45 31.5333 51.25 29.8267 51.25 27.48C51.25 24.0133 51.7433 20.72 52.73 17.6C52.97 16.8267 53.3567 16.2667 53.89 15.92C54.45 15.5467 55.2233 15.36 56.21 15.36C56.7433 15.36 57.1167 15.4267 57.33 15.56C57.5433 15.6933 57.65 15.9467 57.65 16.32C57.65 16.7467 57.45 17.7067 57.05 19.2C56.7833 20.2667 56.57 21.2 56.41 22C56.25 22.8 56.1167 23.7867 56.01 24.96C56.89 22.6667 57.8767 20.8 58.97 19.36C60.0633 17.92 61.13 16.8933 62.17 16.28C63.2367 15.6667 64.21 15.36 65.09 15.36C66.8233 15.36 67.69 16.2267 67.69 17.96C67.69 19 67.3967 20.88 66.81 23.6C66.3033 25.92 66.05 27.4533 66.05 28.2C66.05 29.2667 66.4367 29.8 67.21 29.8C67.7433 29.8 68.37 29.48 69.09 28.84C69.8367 28.1733 70.8233 27.1067 72.05 25.64C72.37 25.2667 72.73 25.08 73.13 25.08C73.4767 25.08 73.7433 25.24 73.93 25.56C74.1433 25.88 74.25 26.32 74.25 26.88C74.25 27.9467 73.9967 28.7733 73.49 29.36C72.3433 30.7733 71.1033 31.9333 69.77 32.84C68.4633 33.7467 66.97 34.2 65.29 34.2C63.93 34.2 62.9033 33.8133 62.21 33.04C61.5167 32.24 61.17 31.0933 61.17 29.6C61.17 28.8533 61.3567 27.52 61.73 25.6C62.0767 23.92 62.25 22.76 62.25 22.12C62.25 21.6933 62.1033 21.48 61.81 21.48C61.4633 21.48 60.97 21.9333 60.33 22.84C59.7167 23.72 59.0767 24.8933 58.41 26.36C57.77 27.8267 57.25 29.3733 56.85 31C56.5567 32.2533 56.21 33.1067 55.81 33.56C55.4367 33.9867 54.8367 34.2 54.01 34.2ZM99.7338 3.32C99.7338 4.12 99.5604 4.72 99.2138 5.12C98.8938 5.52 98.3604 5.72 97.6138 5.72C97.5604 6.28 97.4404 7.25333 97.2538 8.64C96.9871 10.5067 96.8404 11.5467 96.8138 11.76C94.4404 29.44 89.4938 38.28 81.9738 38.28C79.7604 38.28 78.0271 37.6533 76.7738 36.4C75.5471 35.1467 74.9338 33.5733 74.9338 31.68C74.9338 28.2933 76.3738 25.3067 79.2538 22.72C82.1338 20.1067 85.9204 17.9467 90.6138 16.24C90.9071 14.3467 91.1338 12.6533 91.2938 11.16L92.0138 5.12C90.4138 4.96 88.9204 4.88 87.5338 4.88C83.8271 4.88 81.0938 5.24 79.3338 5.96C77.5738 6.68 76.6938 7.85333 76.6938 9.48C76.6938 10.28 76.9604 11.1467 77.4938 12.08C77.6538 12.3467 77.7338 12.6267 77.7338 12.92C77.7338 13.48 77.4404 13.9867 76.8538 14.44C76.2938 14.8667 75.6804 15.08 75.0138 15.08C74.1604 15.08 73.5071 14.72 73.0538 14C72.3071 12.7733 71.9338 11.3467 71.9338 9.72C71.9338 3.32 77.5338 0.119998 88.7338 0.119998C91.9871 0.119998 94.8938 0.439998 97.4538 1.08C98.9738 1.45333 99.7338 2.2 99.7338 3.32ZM82.4938 34C83.8004 34 85.1071 33.0133 86.4138 31.04C87.7204 29.0667 88.8671 25.6133 89.8538 20.68C83.3471 23.5333 80.0938 27.0267 80.0938 31.16C80.0938 32.0667 80.3071 32.7733 80.7338 33.28C81.1604 33.76 81.7471 34 82.4938 34ZM119.343 21.72C119.69 21.72 119.957 21.8933 120.143 22.24C120.33 22.5867 120.423 23.0267 120.423 23.56C120.423 24.84 120.037 25.6 119.263 25.84C117.663 26.4 115.903 26.72 113.983 26.8C113.477 29.04 112.477 30.84 110.983 32.2C109.49 33.5333 107.797 34.2 105.903 34.2C104.303 34.2 102.93 33.8133 101.783 33.04C100.663 32.2667 99.8101 31.24 99.2234 29.96C98.6368 28.68 98.3434 27.2933 98.3434 25.8C98.3434 23.7733 98.7301 21.9733 99.5034 20.4C100.277 18.8 101.343 17.56 102.703 16.68C104.063 15.7733 105.57 15.32 107.223 15.32C109.25 15.32 110.877 16.0267 112.103 17.44C113.357 18.8267 114.09 20.5467 114.303 22.6C115.557 22.52 117.05 22.2533 118.783 21.8C118.997 21.7467 119.183 21.72 119.343 21.72ZM106.223 29.96C107.077 29.96 107.81 29.6133 108.423 28.92C109.063 28.2267 109.49 27.2267 109.703 25.92C108.877 25.36 108.237 24.6267 107.783 23.72C107.357 22.8133 107.143 21.8533 107.143 20.84C107.143 20.4133 107.183 19.9867 107.263 19.56H107.063C105.997 19.56 105.103 20.08 104.383 21.12C103.69 22.1333 103.343 23.5733 103.343 25.44C103.343 26.9067 103.623 28.0267 104.183 28.8C104.77 29.5733 105.45 29.96 106.223 29.96ZM130.99 15.36C131.604 15.36 132.03 15.44 132.27 15.6C132.51 15.76 132.63 16.0267 132.63 16.4C132.63 17.04 132.284 19.32 131.59 23.24C130.977 27 130.617 29.2267 130.51 29.92C129.524 36.7733 128.164 42.2 126.43 46.2C124.697 50.2 122.39 52.2 119.51 52.2C118.15 52.2 117.044 51.7733 116.19 50.92C115.337 50.0933 114.91 49 114.91 47.64C114.91 46.3867 115.19 45.1067 115.75 43.8C116.337 42.4933 117.404 40.9867 118.95 39.28C120.524 37.6 122.737 35.6667 125.59 33.48L125.71 32.56C125.897 31.5733 126.11 30.16 126.35 28.32C125.817 30.24 125.07 31.7067 124.11 32.72C123.15 33.7067 122.137 34.2 121.07 34.2C119.87 34.2 118.884 33.6533 118.11 32.56C117.364 31.44 116.99 30.0533 116.99 28.4C116.99 26.4 117.124 24.5733 117.39 22.92C117.657 21.24 118.097 19.4667 118.71 17.6C118.977 16.8 119.35 16.2267 119.83 15.88C120.31 15.5333 121.07 15.36 122.11 15.36C122.697 15.36 123.097 15.4533 123.31 15.64C123.55 15.8267 123.67 16.1067 123.67 16.48C123.67 16.6933 123.524 17.4133 123.23 18.64C122.964 19.6267 122.75 20.52 122.59 21.32C122.377 22.4133 122.19 23.4667 122.03 24.48C121.87 25.4667 121.79 26.28 121.79 26.92C121.79 27.9333 122.07 28.44 122.63 28.44C123.03 28.44 123.524 28.04 124.11 27.24C124.724 26.44 125.364 25.2267 126.03 23.6C126.724 21.9733 127.39 19.9733 128.03 17.6C128.244 16.8 128.564 16.2267 128.99 15.88C129.444 15.5333 130.11 15.36 130.99 15.36ZM119.95 48.32C120.617 48.32 121.364 47.5467 122.19 46C123.017 44.4533 123.844 41.88 124.67 38.28C122.617 40.0133 121.124 41.5867 120.19 43C119.284 44.44 118.83 45.6933 118.83 46.76C118.83 47.2133 118.91 47.5867 119.07 47.88C119.257 48.1733 119.55 48.32 119.95 48.32Z" fill="#FBFBF5"/>
</g>
<defs>
<filter id="filter0_bdddddddd_3_5" x="0.360001" y="-3.96" width="136.27" height="64.16" filterUnits="userSpaceOnUse" color-interpolation-filters="sRGB">
<feFlood flood-opacity="0" result="BackgroundImageFix"/>
<feGaussianBlur in="BackgroundImageFix" stdDeviation="2"/>
<feComposite in2="SourceAlpha" operator="in" result="effect1_backgroundBlur_3_5"/>
<feColorMatrix in="SourceAlpha" type="matrix" values="0 0 0 0 0 0 0 0 0 0 0 0 0 0 0 0 0 0 127 0" result="hardAlpha"/>
<feOffset dy="4"/>
<feGaussianBlur stdDeviation="2"/>
<feComposite in2="hardAlpha" operator="out"/>
<feColorMatrix type="matrix" values="0 0 0 0 0 0 0 0 0 0 0 0 0 0 0 0 0 0 0.25 0"/>
<feBlend mode="normal" in2="effect1_backgroundBlur_3_5" result="effect2_dropShadow_3_5"/>
<feColorMatrix in="SourceAlpha" type="matrix" values="0 0 0 0 0 0 0 0 0 0 0 0 0 0 0 0 0 0 127 0" result="hardAlpha"/>
<feOffset dy="4"/>
<feGaussianBlur stdDeviation="2"/>
<feComposite in2="hardAlpha" operator="out"/>
<feColorMatrix type="matrix" values="0 0 0 0 0 0 0 0 0 0 0 0 0 0 0 0 0 0 0.25 0"/>
<feBlend mode="normal" in2="effect2_dropShadow_3_5" result="effect3_dropShadow_3_5"/>
<feColorMatrix in="SourceAlpha" type="matrix" values="0 0 0 0 0 0 0 0 0 0 0 0 0 0 0 0 0 0 127 0" result="hardAlpha"/>
<feOffset dy="4"/>
<feGaussianBlur stdDeviation="2"/>
<feComposite in2="hardAlpha" operator="out"/>
<feColorMatrix type="matrix" values="0 0 0 0 0 0 0 0 0 0 0 0 0 0 0 0 0 0 0.25 0"/>
<feBlend mode="normal" in2="effect3_dropShadow_3_5" result="effect4_dropShadow_3_5"/>
<feColorMatrix in="SourceAlpha" type="matrix" values="0 0 0 0 0 0 0 0 0 0 0 0 0 0 0 0 0 0 127 0" result="hardAlpha"/>
<feOffset dy="4"/>
<feGaussianBlur stdDeviation="2"/>
<feComposite in2="hardAlpha" operator="out"/>
<feColorMatrix type="matrix" values="0 0 0 0 0 0 0 0 0 0 0 0 0 0 0 0 0 0 0.25 0"/>
<feBlend mode="normal" in2="effect4_dropShadow_3_5" result="effect5_dropShadow_3_5"/>
<feColorMatrix in="SourceAlpha" type="matrix" values="0 0 0 0 0 0 0 0 0 0 0 0 0 0 0 0 0 0 127 0" result="hardAlpha"/>
<feOffset dy="4"/>
<feGaussianBlur stdDeviation="2"/>
<feComposite in2="hardAlpha" operator="out"/>
<feColorMatrix type="matrix" values="0 0 0 0 0 0 0 0 0 0 0 0 0 0 0 0 0 0 0.25 0"/>
<feBlend mode="normal" in2="effect5_dropShadow_3_5" result="effect6_dropShadow_3_5"/>
<feColorMatrix in="SourceAlpha" type="matrix" values="0 0 0 0 0 0 0 0 0 0 0 0 0 0 0 0 0 0 127 0" result="hardAlpha"/>
<feOffset dy="4"/>
<feGaussianBlur stdDeviation="2"/>
<feComposite in2="hardAlpha" operator="out"/>
<feColorMatrix type="matrix" values="0 0 0 0 1 0 0 0 0 0.42 0 0 0 0 0 0 0 0 1 0"/>
<feBlend mode="lighten" in2="effect6_dropShadow_3_5" result="effect7_dropShadow_3_5"/>
<feColorMatrix in="SourceAlpha" type="matrix" values="0 0 0 0 0 0 0 0 0 0 0 0 0 0 0 0 0 0 127 0" result="hardAlpha"/>
<feOffset dy="4"/>
<feGaussianBlur stdDeviation="2"/>
<feComposite in2="hardAlpha" operator="out"/>
<feColorMatrix type="matrix" values="0 0 0 0 1 0 0 0 0 0.42 0 0 0 0 0 0 0 0 1 0"/>
<feBlend mode="normal" in2="effect7_dropShadow_3_5" result="effect8_dropShadow_3_5"/>
<feColorMatrix in="SourceAlpha" type="matrix" values="0 0 0 0 0 0 0 0 0 0 0 0 0 0 0 0 0 0 127 0" result="hardAlpha"/>
<feOffset dy="4"/>
<feGaussianBlur stdDeviation="2"/>
<feComposite in2="hardAlpha" operator="out"/>
<feColorMatrix type="matrix" values="0 0 0 0 1 0 0 0 0 0.42 0 0 0 0 0 0 0 0 1 0"/>
<feBlend mode="normal" in2="effect8_dropShadow_3_5" result="effect9_dropShadow_3_5"/>
<feBlend mode="normal" in="SourceGraphic" in2="effect9_dropShadow_3_5" result="shape"/>
</filter>
</defs>
</svg>
